{"asset":{"copyright":"","generator":"Source 2 Viewer 19.2.0.0 - https://valveresourceformat.github.io","version":"2.0"},"accessors":[{"name":"Animation.Input","bufferView":0,"componentType":5126,"count":1,"max":[0],"min":[0],"type":"SCALAR"},{"name":"Animation.Output","bufferView":1,"componentType":5126,"count":1,"type":"VEC4"},{"name":"Animation.Input","bufferView":2,"componentType":5126,"count":1,"max":[0],"min":[0],"type":"SCALAR"},{"name":"Animation.Output","bufferView":3,"componentType":5126,"count":1,"max":[3.411252737045288,-0.19305935502052307,4.507503032684326],"min":[3.411252737045288,-0.19305935502052307,4.507503032684326],"type":"VEC3"},{"name":"Animation.Input","bufferView":4,"componentType":5126,"count":1,"max":[0],"min":[0],"type":"SCALAR"},{"name":"Animation.Output","bufferView":5,"componentType":5126,"count":1,"max":[1,1,1],"min":[1,1,1],"type":"VEC3"},{"name":"Animation.Input","bufferView":6,"componentType":5126,"count":1,"max":[0],"min":[0],"type":"SCALAR"},{"name":"Animation.Output","bufferView":7,"componentType":5126,"count":1,"type":"VEC4"},{"name":"Animation.Input","bufferView":8,"componentType":5126,"count":1,"max":[0],"min":[0],"type":"SCALAR"},{"name":"Animation.Output","bufferView":9,"componentType":5126,"count":1,"max":[0,0,0],"min":[0,0,0],"type":"VEC3"},{"name":"Animation.Input","bufferView":10,"componentType":5126,"count":1,"max":[0],"min":[0],"type":"SCALAR"},{"name":"Animation.Output","bufferView":11,"componentType":5126,"count":1,"max":[1,1,1],"min":[1,1,1],"type":"VEC3"},{"name":"Animation.Input","bufferView":12,"componentType":5126,"count":1,"max":[0],"min":[0],"type":"SCALAR"},{"name":"Animation.Output","bufferView":13,"componentType":5126,"count":1,"type":"VEC4"},{"name":"Animation.Input","bufferView":14,"componentType":5126,"count":1,"max":[0],"min":[0],"type":"SCALAR"},{"name":"Animation.Output","bufferView":15,"componentType":5126,"count":1,"max":[5.7358808517456055,0.19306309521198273,-0.37656259536743164],"min":[5.7358808517456055,0.19306309521198273,-0.37656259536743164],"type":"VEC3"},{"name":"Animation.Input","bufferView":16,"componentType":5126,"count":1,"max":[0],"min":[0],"type":"SCALAR"},{"name":"Animation.Output","bufferView":17,"componentType":5126,"count":1,"max":[1,1,1],"min":[1,1,1],"type":"VEC3"},{"name":"Animation.Input","bufferView":18,"componentType":5126,"count":1,"max":[0],"min":[0],"type":"SCALAR"},{"name":"Animation.Output","bufferView":19,"componentType":5126,"count":1,"type":"VEC4"},{"name":"Animation.Input","bufferView":20,"componentType":5126,"count":1,"max":[0],"min":[0],"type":"SCALAR"},{"name":"Animation.Output","bufferView":21,"componentType":5126,"count":1,"max":[3.9563381671905518,0.19305062294006348,-4.739345073699951],"min":[3.9563381671905518,0.19305062294006348,-4.739345073699951],"type":"VEC3"},{"name":"Animation.Input","bufferView":22,"componentType":5126,"count":1,"max":[0],"min":[0],"type":"SCALAR"},{"name":"Animation.Output","bufferView":23,"componentType":5126,"count":1,"max":[1,1,1],"min":[1,1,1],"type":"VEC3"},{"name":"Animation.Input","bufferView":24,"componentType":5126,"count":1,"max":[0],"min":[0],"type":"SCALAR"},{"name":"Animation.Output","bufferView":25,"componentType":5126,"count":1,"type":"VEC4"},{"name":"Animation.Input","bufferView":26,"componentType":5126,"count":1,"max":[0],"min":[0],"type":"SCALAR"},{"name":"Animation.Output","bufferView":27,"componentType":5126,"count":1,"max":[1.5860326290130615,0.19305594265460968,-2.8237695693969727],"min":[1.5860326290130615,0.19305594265460968,-2.8237695693969727],"type":"VEC3"},{"name":"Animation.Input","bufferView":28,"componentType":5126,"count":1,"max":[0],"min":[0],"type":"SCALAR"},{"name":"Animation.Output","bufferView":29,"componentType":5126,"count":1,"max":[1,1,1],"min":[1,1,1],"type":"VEC3"},{"name":"Animation.Input","bufferView":30,"componentType":5126,"count":1,"max":[0],"min":[0],"type":"SCALAR"},{"name":"Animation.Output","bufferView":31,"componentType":5126,"count":1,"type":"VEC4"},{"name":"Animation.Input","bufferView":32,"componentType":5126,"count":1,"max":[0],"min":[0],"type":"SCALAR"},{"name":"Animation.Output","bufferView":33,"componentType":5126,"count":1,"max":[-0.693359375,0.1929931640625,-2.041015625],"min":[-0.693359375,0.1929931640625,-2.041015625],"type":"VEC3"},{"name":"Animation.Input","bufferView":34,"componentType":5126,"count":1,"max":[0],"min":[0],"type":"SCALAR"},{"name":"Animation.Output","bufferView":35,"componentType":5126,"count":1,"max":[1,1,1],"min":[1,1,1],"type":"VEC3"},{"name":"Animation.Input","bufferView":36,"componentType":5126,"count":1,"max":[0],"min":[0],"type":"SCALAR"},{"name":"Animation.Output","bufferView":37,"componentType":5126,"count":1,"type":"VEC4"},{"name":"Animation.Input","bufferView":38,"componentType":5126,"count":1,"max":[0],"min":[0],"type":"SCALAR"},{"name":"Animation.Output","bufferView":39,"componentType":5126,"count":1,"max":[-3.411252737045288,0.19305935502052307,-4.507503032684326],"min":[-3.411252737045288,0.19305935502052307,-4.507503032684326],"type":"VEC3"},{"name":"Animation.Input","bufferView":40,"componentType":5126,"count":1,"max":[0],"min":[0],"type":"SCALAR"},{"name":"Animation.Output","bufferView":41,"componentType":5126,"count":1,"max":[1,1,1],"min":[1,1,1],"type":"VEC3"},{"name":"Animation.Input","bufferView":42,"componentType":5126,"count":1,"max":[0],"min":[0],"type":"SCALAR"},{"name":"Animation.Output","bufferView":43,"componentType":5126,"count":1,"type":"VEC4"},{"name":"Animation.Input","bufferView":44,"componentType":5126,"count":1,"max":[0],"min":[0],"type":"SCALAR"},{"name":"Animation.Output","bufferView":45,"componentType":5126,"count":1,"max":[3.411252498626709,-0.19305944442749023,4.507502555847168],"min":[3.411252498626709,-0.19305944442749023,4.507502555847168],"type":"VEC3"},{"name":"Animation.Input","bufferView":46,"componentType":5126,"count":1,"max":[0],"min":[0],"type":"SCALAR"},{"name":"Animation.Output","bufferView":47,"componentType":5126,"count":1,"max":[1,1,1],"min":[1,1,1],"type":"VEC3"},{"name":"Animation.Input","bufferView":48,"componentType":5126,"count":1,"max":[0],"min":[0],"type":"SCALAR"},{"name":"Animation.Output","bufferView":49,"componentType":5126,"count":1,"type":"VEC4"},{"name":"Animation.Input","bufferView":50,"componentType":5126,"count":1,"max":[0],"min":[0],"type":"SCALAR"},{"name":"Animation.Output","bufferView":51,"componentType":5126,"count":1,"max":[0,0,0],"min":[0,0,0],"type":"VEC3"},{"name":"Animation.Input","bufferView":52,"componentType":5126,"count":1,"max":[0],"min":[0],"type":"SCALAR"},{"name":"Animation.Output","bufferView":53,"componentType":5126,"count":1,"max":[1,1,1],"min":[1,1,1],"type":"VEC3"},{"name":"Animation.Input","bufferView":54,"componentType":5126,"count":1,"max":[0],"min":[0],"type":"SCALAR"},{"name":"Animation.Output","bufferView":55,"componentType":5126,"count":1,"type":"VEC4"},{"name":"Animation.Input","bufferView":56,"componentType":5126,"count":73,"max":[2.4000000953674316],"min":[0],"type":"SCALAR"},{"name":"Animation.Output","bufferView":57,"componentType":5126,"count":73,"max":[5.844925403594971,0.19316577911376953,-0.37652587890625],"min":[-0.7276015281677246,0.19292163848876953,-0.3766670227050781],"type":"VEC3"},{"name":"Animation.Input","bufferView":58,"componentType":5126,"count":1,"max":[0],"min":[0],"type":"SCALAR"},{"name":"Animation.Output","bufferView":59,"componentType":5126,"count":1,"max":[1,1,1],"min":[1,1,1],"type":"VEC3"},{"name":"Animation.Input","bufferView":60,"componentType":5126,"count":62,"max":[2.200000047683716],"min":[0],"type":"SCALAR"},{"name":"Animation.Output","bufferView":61,"componentType":5126,"count":62,"type":"VEC4"},{"name":"Animation.Input","bufferView":62,"componentType":5126,"count":74,"max":[2.433333396911621],"min":[0],"type":"SCALAR"},{"name":"Animation.Output","bufferView":63,"componentType":5126,"count":74,"max":[5.642761707305908,14.260414123535156,-4.736833572387695],"min":[-8.676965713500977,-1.9244213104248047,-26.04126739501953],"type":"VEC3"},{"name":"Animation.Input","bufferView":64,"componentType":5126,"count":5,"max":[1],"min":[0],"type":"SCALAR"},{"name":"Animation.Output","bufferView":65,"componentType":5126,"count":5,"max":[1,1,1],"min":[0,0,0],"type":"VEC3"},{"name":"Animation.Input","bufferView":66,"componentType":5126,"count":1,"max":[0],"min":[0],"type":"SCALAR"},{"name":"Animation.Output","bufferView":67,"componentType":5126,"count":1,"type":"VEC4"},{"name":"Animation.Input","bufferView":68,"componentType":5126,"count":1,"max":[0],"min":[0],"type":"SCALAR"},{"name":"Animation.Output","bufferView":69,"componentType":5126,"count":1,"max":[1.5860295295715332,0.19305658340454102,-2.8237709999084473],"min":[1.5860295295715332,0.19305658340454102,-2.8237709999084473],"type":"VEC3"},{"name":"Animation.Input","bufferView":70,"componentType":5126,"count":1,"max":[0],"min":[0],"type":"SCALAR"},{"name":"Animation.Output","bufferView":71,"componentType":5126,"count":1,"max":[1,1,1],"min":[1,1,1],"type":"VEC3"},{"name":"Animation.Input","bufferView":72,"componentType":5126,"count":1,"max":[0],"min":[0],"type":"SCALAR"},{"name":"Animation.Output","bufferView":73,"componentType":5126,"count":1,"type":"VEC4"},{"name":"Animation.Input","bufferView":74,"componentType":5126,"count":1,"max":[0],"min":[0],"type":"SCALAR"},{"name":"Animation.Output","bufferView":75,"componentType":5126,"count":1,"max":[-0.693359375,0.1929931640625,-2.041015625],"min":[-0.693359375,0.1929931640625,-2.041015625],"type":"VEC3"},{"name":"Animation.Input","bufferView":76,"componentType":5126,"count":1,"max":[0],"min":[0],"type":"SCALAR"},{"name":"Animation.Output","bufferView":77,"componentType":5126,"count":1,"max":[1,1,1],"min":[1,1,1],"type":"VEC3"},{"name":"Animation.Input","bufferView":78,"componentType":5126,"count":1,"max":[0],"min":[0],"type":"SCALAR"},{"name":"Animation.Output","bufferView":79,"componentType":5126,"count":1,"type":"VEC4"},{"name":"Animation.Input","bufferView":80,"componentType":5126,"count":1,"max":[0],"min":[0],"type":"SCALAR"},{"name":"Animation.Output","bufferView":81,"componentType":5126,"count":1,"max":[-3.411252498626709,0.19305944442749023,-4.507502555847168],"min":[-3.411252498626709,0.19305944442749023,-4.507502555847168],"type":"VEC3"},{"name":"Animation.Input","bufferView":82,"componentType":5126,"count":1,"max":[0],"min":[0],"type":"SCALAR"},{"name":"Animation.Output","bufferView":83,"componentType":5126,"count":1,"max":[1,1,1],"min":[1,1,1],"type":"VEC3"},{"name":"Animation.Input","bufferView":84,"componentType":5126,"count":1,"max":[0],"min":[0],"type":"SCALAR"},{"name":"Animation.Output","bufferView":85,"componentType":5126,"count":1,"type":"VEC4"},{"name":"Animation.Input","bufferView":86,"componentType":5126,"count":1,"max":[0],"min":[0],"type":"SCALAR"},{"name":"Animation.Output","bufferView":87,"componentType":5126,"count":1,"max":[3.411252498626709,-0.19305944442749023,4.507502555847168],"min":[3.411252498626709,-0.19305944442749023,4.507502555847168],"type":"VEC3"},{"name":"Animation.Input","bufferView":88,"componentType":5126,"count":1,"max":[0],"min":[0],"type":"SCALAR"},{"name":"Animation.Output","bufferView":89,"componentType":5126,"count":1,"max":[1,1,1],"min":[1,1,1],"type":"VEC3"},{"name":"Animation.Input","bufferView":90,"componentType":5126,"count":1,"max":[0],"min":[0],"type":"SCALAR"},{"name":"Animation.Output","bufferView":91,"componentType":5126,"count":1,"type":"VEC4"},{"name":"Animation.Input","bufferView":92,"componentType":5126,"count":1,"max":[0],"min":[0],"type":"SCALAR"},{"name":"Animation.Output","bufferView":93,"componentType":5126,"count":1,"max":[0,0,0],"min":[0,0,0],"type":"VEC3"},{"name":"Animation.Input","bufferView":94,"componentType":5126,"count":1,"max":[0],"min":[0],"type":"SCALAR"},{"name":"Animation.Output","bufferView":95,"componentType":5126,"count":1,"max":[1,1,1],"min":[1,1,1],"type":"VEC3"},{"name":"Animation.Input","bufferView":96,"componentType":5126,"count":1,"max":[0],"min":[0],"type":"SCALAR"},{"name":"Animation.Output","bufferView":97,"componentType":5126,"count":1,"type":"VEC4"},{"name":"Animation.Input","bufferView":98,"componentType":5126,"count":9,"max":[0.2666666805744171],"min":[0],"type":"SCALAR"},{"name":"Animation.Output","bufferView":99,"componentType":5126,"count":9,"max":[5.735584735870361,0.19304752349853516,-0.37706899642944336],"min":[1.4256901741027832,0.1930246353149414,-0.3770761489868164],"type":"VEC3"},{"name":"Animation.Input","bufferView":100,"componentType":5126,"count":1,"max":[0],"min":[0],"type":"SCALAR"},{"name":"Animation.Output","bufferView":101,"componentType":5126,"count":1,"max":[1,1,1],"min":[1,1,1],"type":"VEC3"},{"name":"Animation.Input","bufferView":102,"componentType":5126,"count":1,"max":[0],"min":[0],"type":"SCALAR"},{"name":"Animation.Output","bufferView":103,"componentType":5126,"count":1,"type":"VEC4"},{"name":"Animation.Input","bufferView":104,"componentType":5126,"count":1,"max":[0],"min":[0],"type":"SCALAR"},{"name":"Animation.Output","bufferView":105,"componentType":5126,"count":1,"max":[3.9559054374694824,0.19304275512695312,-4.7393293380737305],"min":[3.9559054374694824,0.19304275512695312,-4.7393293380737305],"type":"VEC3"},{"name":"Animation.Input","bufferView":106,"componentType":5126,"count":1,"max":[0],"min":[0],"type":"SCALAR"},{"name":"Animation.Output","bufferView":107,"componentType":5126,"count":1,"max":[1,1,1],"min":[1,1,1],"type":"VEC3"},{"name":"Animation.Input","bufferView":108,"componentType":5126,"count":1,"max":[0],"min":[0],"type":"SCALAR"},{"name":"Animation.Output","bufferView":109,"componentType":5126,"count":1,"type":"VEC4"},{"name":"Animation.Input","bufferView":110,"componentType":5126,"count":1,"max":[0],"min":[0],"type":"SCALAR"},{"name":"Animation.Output","bufferView":111,"componentType":5126,"count":1,"max":[1.5860295295715332,0.1930556297302246,-2.8237709999084473],"min":[1.5860295295715332,0.1930556297302246,-2.8237709999084473],"type":"VEC3"},{"name":"Animation.Input","bufferView":112,"componentType":5126,"count":1,"max":[0],"min":[0],"type":"SCALAR"},{"name":"Animation.Output","bufferView":113,"componentType":5126,"count":1,"max":[1,1,1],"min":[1,1,1],"type":"VEC3"},{"name":"Animation.Input","bufferView":114,"componentType":5126,"count":9,"max":[0.2666666805744171],"min":[0],"type":"SCALAR"},{"name":"Animation.Output","bufferView":115,"componentType":5126,"count":9,"type":"VEC4"},{"name":"Animation.Input","bufferView":116,"componentType":5126,"count":1,"max":[0],"min":[0],"type":"SCALAR"},{"name":"Animation.Output","bufferView":117,"componentType":5126,"count":1,"max":[-0.693359375,0.1929931640625,-2.041015625],"min":[-0.693359375,0.1929931640625,-2.041015625],"type":"VEC3"},{"name":"Animation.Input","bufferView":118,"componentType":5126,"count":1,"max":[0],"min":[0],"type":"SCALAR"},{"name":"Animation.Output","bufferView":119,"componentType":5126,"count":1,"max":[1,1,1],"min":[1,1,1],"type":"VEC3"},{"name":"Animation.Input","bufferView":120,"componentType":5126,"count":1,"max":[0],"min":[0],"type":"SCALAR"},{"name":"Animation.Output","bufferView":121,"componentType":5126,"count":1,"type":"VEC4"},{"name":"Animation.Input","bufferView":122,"componentType":5126,"count":1,"max":[0],"min":[0],"type":"SCALAR"},{"name":"Animation.Output","bufferView":123,"componentType":5126,"count":1,"max":[-3.411252498626709,0.19305944442749023,-4.507502555847168],"min":[-3.411252498626709,0.19305944442749023,-4.507502555847168],"type":"VEC3"},{"name":"Animation.Input","bufferView":124,"componentType":5126,"count":1,"max":[0],"min":[0],"type":"SCALAR"},{"name":"Animation.Output","bufferView":125,"componentType":5126,"count":1,"max":[1,1,1],"min":[1,1,1],"type":"VEC3"},{"name":"Animation.Input","bufferView":126,"componentType":5126,"count":1,"max":[0],"min":[0],"type":"SCALAR"},{"name":"Animation.Output","bufferView":127,"componentType":5126,"count":1,"type":"VEC4"},{"name":"Animation.Input","bufferView":128,"componentType":5126,"count":1,"max":[0],"min":[0],"type":"SCALAR"},{"name":"Animation.Output","bufferView":129,"componentType":5126,"count":1,"max":[-4.310872554779053,-0.19130218029022217,3.6506385803222656],"min":[-4.310872554779053,-0.19130218029022217,3.6506385803222656],"type":"VEC3"},{"name":"Animation.Input","bufferView":130,"componentType":5126,"count":1,"max":[0],"min":[0],"type":"SCALAR"},{"name":"Animation.Output","bufferView":131,"componentType":5126,"count":1,"max":[1,1,1],"min":[1,1,1],"type":"VEC3"},{"name":"Animation.Input","bufferView":132,"componentType":5126,"count":1,"max":[0],"min":[0],"type":"SCALAR"},{"name":"Animation.Output","bufferView":133,"componentType":5126,"count":1,"type":"VEC4"},{"name":"Animation.Input","bufferView":134,"componentType":5126,"count":1,"max":[0],"min":[0],"type":"SCALAR"},{"name":"Animation.Output","bufferView":135,"componentType":5126,"count":1,"max":[0,0,0],"min":[0,0,0],"type":"VEC3"},{"name":"Animation.Input","bufferView":136,"componentType":5126,"count":1,"max":[0],"min":[0],"type":"SCALAR"},{"name":"Animation.Output","bufferView":137,"componentType":5126,"count":1,"max":[1,1,1],"min":[1,1,1],"type":"VEC3"},{"name":"Animation.Input","bufferView":138,"componentType":5126,"count":1,"max":[0],"min":[0],"type":"SCALAR"},{"name":"Animation.Output","bufferView":139,"componentType":5126,"count":1,"type":"VEC4"},{"name":"Animation.Input","bufferView":140,"componentType":5126,"count":1,"max":[0],"min":[0],"type":"SCALAR"},{"name":"Animation.Output","bufferView":141,"componentType":5126,"count":1,"max":[5.735880374908447,0.19306311011314392,-0.37656283378601074],"min":[5.735880374908447,0.19306311011314392,-0.37656283378601074],"type":"VEC3"},{"name":"Animation.Input","bufferView":142,"componentType":5126,"count":1,"max":[0],"min":[0],"type":"SCALAR"},{"name":"Animation.Output","bufferView":143,"componentType":5126,"count":1,"max":[1,1,1],"min":[1,1,1],"type":"VEC3"},{"name":"Animation.Input","bufferView":144,"componentType":5126,"count":1,"max":[0],"min":[0],"type":"SCALAR"},{"name":"Animation.Output","bufferView":145,"componentType":5126,"count":1,"type":"VEC4"},{"name":"Animation.Input","bufferView":146,"componentType":5126,"count":1,"max":[0],"min":[0],"type":"SCALAR"},{"name":"Animation.Output","bufferView":147,"componentType":5126,"count":1,"max":[3.9563381671905518,0.19305063784122467,-4.739345073699951],"min":[3.9563381671905518,0.19305063784122467,-4.739345073699951],"type":"VEC3"},{"name":"Animation.Input","bufferView":148,"componentType":5126,"count":1,"max":[0],"min":[0],"type":"SCALAR"},{"name":"Animation.Output","bufferView":149,"componentType":5126,"count":1,"max":[1,1,1],"min":[1,1,1],"type":"VEC3"},{"name":"Animation.Input","bufferView":150,"componentType":5126,"count":1,"max":[0],"min":[0],"type":"SCALAR"},{"name":"Animation.Output","bufferView":151,"componentType":5126,"count":1,"type":"VEC4"},{"name":"Animation.Input","bufferView":152,"componentType":5126,"count":1,"max":[0],"min":[0],"type":"SCALAR"},{"name":"Animation.Output","bufferView":153,"componentType":5126,"count":1,"max":[1.5860326290130615,0.19305595755577087,-2.8237695693969727],"min":[1.5860326290130615,0.19305595755577087,-2.8237695693969727],"type":"VEC3"},{"name":"Animation.Input","bufferView":154,"componentType":5126,"count":1,"max":[0],"min":[0],"type":"SCALAR"},{"name":"Animation.Output","bufferView":155,"componentType":5126,"count":1,"max":[1,1,1],"min":[1,1,1],"type":"VEC3"},{"name":"Animation.Input","bufferView":156,"componentType":5126,"count":1,"max":[0],"min":[0],"type":"SCALAR"},{"name":"Animation.Output","bufferView":157,"componentType":5126,"count":1,"type":"VEC4"},{"name":"Animation.Input","bufferView":158,"componentType":5126,"count":1,"max":[0],"min":[0],"type":"SCALAR"},{"name":"Animation.Output","bufferView":159,"componentType":5126,"count":1,"max":[-0.693359375,0.1929931640625,-2.041015625],"min":[-0.693359375,0.1929931640625,-2.041015625],"type":"VEC3"},{"name":"Animation.Input","bufferView":160,"componentType":5126,"count":1,"max":[0],"min":[0],"type":"SCALAR"},{"name":"Animation.Output","bufferView":161,"componentType":5126,"count":1,"max":[1,1,1],"min":[1,1,1],"type":"VEC3"},{"name":"Animation.Input","bufferView":162,"componentType":5126,"count":1,"max":[0],"min":[0],"type":"SCALAR"},{"name":"Animation.Output","bufferView":163,"componentType":5126,"count":1,"type":"VEC4"},{"name":"Animation.Input","bufferView":164,"componentType":5126,"count":1,"max":[0],"min":[0],"type":"SCALAR"},{"name":"Animation.Output","bufferView":165,"componentType":5126,"count":1,"max":[-3.411252498626709,0.19305936992168427,-4.507503032684326],"min":[-3.411252498626709,0.19305936992168427,-4.507503032684326],"type":"VEC3"},{"name":"Animation.Input","bufferView":166,"componentType":5126,"count":1,"max":[0],"min":[0],"type":"SCALAR"},{"name":"Animation.Output","bufferView":167,"componentType":5126,"count":1,"max":[1,1,1],"min":[1,1,1],"type":"VEC3"},{"name":"Animation.Input","bufferView":168,"componentType":5126,"count":1,"max":[0],"min":[0],"type":"SCALAR"},{"name":"Animation.Output","bufferView":169,"componentType":5126,"count":1,"type":"VEC4"},{"name":"Animation.Input","bufferView":170,"componentType":5126,"count":1,"max":[0],"min":[0],"type":"SCALAR"},{"name":"Animation.Output","bufferView":171,"componentType":5126,"count":1,"max":[-4.310872554779053,-0.19130218029022217,3.6506385803222656],"min":[-4.310872554779053,-0.19130218029022217,3.6506385803222656],"type":"VEC3"},{"name":"Animation.Input","bufferView":172,"componentType":5126,"count":1,"max":[0],"min":[0],"type":"SCALAR"},{"name":"Animation.Output","bufferView":173,"componentType":5126,"count":1,"max":[1,1,1],"min":[1,1,1],"type":"VEC3"},{"name":"Animation.Input","bufferView":174,"componentType":5126,"count":1,"max":[0],"min":[0],"type":"SCALAR"},{"name":"Animation.Output","bufferView":175,"componentType":5126,"count":1,"type":"VEC4"},{"name":"Animation.Input","bufferView":176,"componentType":5126,"count":1,"max":[0],"min":[0],"type":"SCALAR"},{"name":"Animation.Output","bufferView":177,"componentType":5126,"count":1,"max":[0,0,0],"min":[0,0,0],"type":"VEC3"},{"name":"Animation.Input","bufferView":178,"componentType":5126,"count":1,"max":[0],"min":[0],"type":"SCALAR"},{"name":"Animation.Output","bufferView":179,"componentType":5126,"count":1,"max":[1,1,1],"min":[1,1,1],"type":"VEC3"},{"name":"Animation.Input","bufferView":180,"componentType":5126,"count":1,"max":[0],"min":[0],"type":"SCALAR"},{"name":"Animation.Output","bufferView":181,"componentType":5126,"count":1,"type":"VEC4"},{"name":"Animation.Input","bufferView":182,"componentType":5126,"count":1,"max":[0],"min":[0],"type":"SCALAR"},{"name":"Animation.Output","bufferView":183,"componentType":5126,"count":1,"max":[5.735880374908447,0.19306311011314392,-0.37656283378601074],"min":[5.735880374908447,0.19306311011314392,-0.37656283378601074],"type":"VEC3"},{"name":"Animation.Input","bufferView":184,"componentType":5126,"count":1,"max":[0],"min":[0],"type":"SCALAR"},{"name":"Animation.Output","bufferView":185,"componentType":5126,"count":1,"max":[1,1,1],"min":[1,1,1],"type":"VEC3"},{"name":"Animation.Input","bufferView":186,"componentType":5126,"count":1,"max":[0],"min":[0],"type":"SCALAR"},{"name":"Animation.Output","bufferView":187,"componentType":5126,"count":1,"type":"VEC4"},{"name":"Animation.Input","bufferView":188,"componentType":5126,"count":1,"max":[0],"min":[0],"type":"SCALAR"},{"name":"Animation.Output","bufferView":189,"componentType":5126,"count":1,"max":[3.9563381671905518,0.19305063784122467,-4.739345073699951],"min":[3.9563381671905518,0.19305063784122467,-4.739345073699951],"type":"VEC3"},{"name":"Animation.Input","bufferView":190,"componentType":5126,"count":1,"max":[0],"min":[0],"type":"SCALAR"},{"name":"Animation.Output","bufferView":191,"componentType":5126,"count":1,"max":[1,1,1],"min":[1,1,1],"type":"VEC3"},{"name":"Animation.Input","bufferView":192,"componentType":5126,"count":1,"max":[0],"min":[0],"type":"SCALAR"},{"name":"Animation.Output","bufferView":193,"componentType":5126,"count":1,"type":"VEC4"},{"name":"Animation.Input","bufferView":194,"componentType":5126,"count":1,"max":[0],"min":[0],"type":"SCALAR"},{"name":"Animation.Output","bufferView":195,"componentType":5126,"count":1,"max":[1.5860326290130615,0.19305595755577087,-2.8237695693969727],"min":[1.5860326290130615,0.19305595755577087,-2.8237695693969727],"type":"VEC3"},{"name":"Animation.Input","bufferView":196,"componentType":5126,"count":1,"max":[0],"min":[0],"type":"SCALAR"},{"name":"Animation.Output","bufferView":197,"componentType":5126,"count":1,"max":[1,1,1],"min":[1,1,1],"type":"VEC3"},{"name":"Animation.Input","bufferView":198,"componentType":5126,"count":1,"max":[0],"min":[0],"type":"SCALAR"},{"name":"Animation.Output","bufferView":199,"componentType":5126,"count":1,"type":"VEC4"},{"name":"Animation.Input","bufferView":200,"componentType":5126,"count":1,"max":[0],"min":[0],"type":"SCALAR"},{"name":"Animation.Output","bufferView":201,"componentType":5126,"count":1,"max":[-0.693359375,0.1929931640625,-2.041015625],"min":[-0.693359375,0.1929931640625,-2.041015625],"type":"VEC3"},{"name":"Animation.Input","bufferView":202,"componentType":5126,"count":1,"max":[0],"min":[0],"type":"SCALAR"},{"name":"Animation.Output","bufferView":203,"componentType":5126,"count":1,"max":[1,1,1],"min":[1,1,1],"type":"VEC3"},{"name":"Animation.Input","bufferView":204,"componentType":5126,"count":1,"max":[0],"min":[0],"type":"SCALAR"},{"name":"Animation.Output","bufferView":205,"componentType":5126,"count":1,"type":"VEC4"},{"name":"Animation.Input","bufferView":206,"componentType":5126,"count":1,"max":[0],"min":[0],"type":"SCALAR"},{"name":"Animation.Output","bufferView":207,"componentType":5126,"count":1,"max":[-3.411252498626709,0.19305936992168427,-4.507503032684326],"min":[-3.411252498626709,0.19305936992168427,-4.507503032684326],"type":"VEC3"},{"name":"Animation.Input","bufferView":208,"componentType":5126,"count":1,"max":[0],"min":[0],"type":"SCALAR"},{"name":"Animation.Output","bufferView":209,"componentType":5126,"count":1,"max":[1,1,1],"min":[1,1,1],"type":"VEC3"},{"bufferView":210,"componentType":5126,"count":12935,"max":[26.098600387573242,1.0002771615982056,4.428019046783447],"min":[-11.64754867553711,-1.9876148700714111,-6.483077526092529],"type":"VEC3"},{"bufferView":211,"componentType":5126,"count":12935,"max":[2.009765625,3.408203125],"min":[-0.1170654296875,-4],"type":"VEC2"},{"bufferView":212,"componentType":5126,"count":12935,"max":[0.9999995231628418,0.9998885989189148,0.9999990463256836],"min":[-0.9999995231628418,-0.9999995231628418,-1],"type":"VEC3"},{"bufferView":213,"componentType":5126,"count":12935,"type":"VEC4"},{"bufferView":214,"componentType":5126,"count":12935,"max":[0.99853515625,0.299560546875],"min":[-1.994140625,0.012542724609375],"type":"VEC2"},{"bufferView":215,"componentType":5123,"count":12935,"type":"VEC4"},{"bufferView":216,"componentType":5126,"count":12935,"type":"VEC4"},{"bufferView":217,"componentType":5125,"count":40305,"type":"SCALAR"},{"bufferView":218,"componentType":5125,"count":144,"type":"SCALAR"},{"name":"Bind Matrices","bufferView":219,"componentType":5126,"count":7,"type":"MAT4"},{"bufferView":220,"componentType":5126,"count":21414,"max":[25.911012649536133,1.0221797227859497,4.524250030517578],"min":[-11.375741958618164,-1.7899433374404907,-6.181813716888428],"type":"VEC3"},{"bufferView":221,"componentType":5126,"count":21414,"max":[0.9970701932907104,0.9972838759422302],"min":[0.002685628831386566,0.0026551103219389915],"type":"VEC2"},{"bufferView":222,"componentType":5126,"count":21414,"max":[0.9999995231628418,0.9999995231628418,0.9999990463256836],"min":[-0.9999995231628418,-0.9999995231628418,-1],"type":"VEC3"},{"bufferView":223,"componentType":5126,"count":21414,"type":"VEC4"},{"bufferView":224,"componentType":5126,"count":21414,"max":[0.9912109375,0.291748046875],"min":[-1.9892578125,0.010009765625],"type":"VEC2"},{"bufferView":225,"componentType":5123,"count":21414,"type":"VEC4"},{"bufferView":226,"componentType":5126,"count":21414,"type":"VEC4"},{"bufferView":227,"componentType":5126,"count":36,"max":[16.080991744995117,0.75184166431427,3.303863286972046],"min":[11.37360954284668,0.3022060692310333,2.7477378845214844],"type":"VEC3"},{"bufferView":228,"componentType":5126,"count":36,"max":[0,-4],"min":[0,-4],"type":"VEC2"},{"bufferView":229,"componentType":5126,"count":36,"max":[0.0857931599020958,0.9988486766815186,0.6296352744102478],"min":[-0.9999995231628418,0,-0.4808693528175354],"type":"VEC3"},{"bufferView":230,"componentType":5126,"count":36,"type":"VEC4"},{"bufferView":231,"componentType":5126,"count":36,"max":[0.392578125,0.0567626953125],"min":[-1.6123046875,0.0421142578125],"type":"VEC2"},{"bufferView":232,"componentType":5123,"count":36,"type":"VEC4"},{"bufferView":233,"componentType":5126,"count":36,"type":"VEC4"},{"bufferView":234,"componentType":5125,"count":78399,"type":"SCALAR"},{"bufferView":235,"componentType":5125,"count":99,"type":"SCALAR"},{"name":"Bind Matrices","bufferView":236,"componentType":5126,"count":7,"type":"MAT4"}],"animations":[{"name":"dropped","channels":[{"sampler":0,"target":{"node":1,"path":"rotation"}},{"sampler":1,"target":{"node":1,"path":"translation"}},{"sampler":2,"target":{"node":1,"path":"scale"}},{"sampler":3,"target":{"node":2,"path":"rotation"}},{"sampler":4,"target":{"node":2,"path":"translation"}},{"sampler":5,"target":{"node":2,"path":"scale"}},{"sampler":6,"target":{"node":3,"path":"rotation"}},{"sampler":7,"target":{"node":3,"path":"translation"}},{"sampler":8,"target":{"node":3,"path":"scale"}},{"sampler":9,"target":{"node":4,"path":"rotation"}},{"sampler":10,"target":{"node":4,"path":"translation"}},{"sampler":11,"target":{"node":4,"path":"scale"}},{"sampler":12,"target":{"node":5,"path":"rotation"}},{"sampler":13,"target":{"node":5,"path":"translation"}},{"sampler":14,"target":{"node":5,"path":"scale"}},{"sampler":15,"target":{"node":6,"path":"rotation"}},{"sampler":16,"target":{"node":6,"path":"translation"}},{"sampler":17,"target":{"node":6,"path":"scale"}},{"sampler":18,"target":{"node":7,"path":"rotation"}},{"sampler":19,"target":{"node":7,"path":"translation"}},{"sampler":20,"target":{"node":7,"path":"scale"}}],"samplers":[{"input":0,"output":1},{"input":2,"output":3},{"input":4,"output":5},{"input":6,"output":7},{"input":8,"output":9},{"input":10,"output":11},{"input":12,"output":13},{"input":14,"output":15},{"input":16,"output":17},{"input":18,"output":19},{"input":20,"output":21},{"input":22,"output":23},{"input":24,"output":25},{"input":26,"output":27},{"input":28,"output":29},{"input":30,"output":31},{"input":32,"output":33},{"input":34,"output":35},{"input":36,"output":37},{"input":38,"output":39},{"input":40,"output":41}]},{"name":"reload","channels":[{"sampler":0,"target":{"node":1,"path":"rotation"}},{"sampler":1,"target":{"node":1,"path":"translation"}},{"sampler":2,"target":{"node":1,"path":"scale"}},{"sampler":3,"target":{"node":2,"path":"rotation"}},{"sampler":4,"target":{"node":2,"path":"translation"}},{"sampler":5,"target":{"node":2,"path":"scale"}},{"sampler":6,"target":{"node":3,"path":"rotation"}},{"sampler":7,"target":{"node":3,"path":"translation"}},{"sampler":8,"target":{"node":3,"path":"scale"}},{"sampler":9,"target":{"node":4,"path":"rotation"}},{"sampler":10,"target":{"node":4,"path":"translation"}},{"sampler":11,"target":{"node":4,"path":"scale"}},{"sampler":12,"target":{"node":5,"path":"rotation"}},{"sampler":13,"target":{"node":5,"path":"translation"}},{"sampler":14,"target":{"node":5,"path":"scale"}},{"sampler":15,"target":{"node":6,"path":"rotation"}},{"sampler":16,"target":{"node":6,"path":"translation"}},{"sampler":17,"target":{"node":6,"path":"scale"}},{"sampler":18,"target":{"node":7,"path":"rotation"}},{"sampler":19,"target":{"node":7,"path":"translation"}},{"sampler":20,"target":{"node":7,"path":"scale"}}],"samplers":[{"input":42,"output":43},{"input":44,"output":45},{"input":46,"output":47},{"input":48,"output":49},{"input":50,"output":51},{"input":52,"output":53},{"input":54,"output":55},{"input":56,"output":57},{"input":58,"output":59},{"input":60,"output":61},{"input":62,"output":63},{"input":64,"output":65},{"input":66,"output":67},{"input":68,"output":69},{"input":70,"output":71},{"input":72,"output":73},{"input":74,"output":75},{"input":76,"output":77},{"input":78,"output":79},{"input":80,"output":81},{"input":82,"output":83}]},{"name":"shoot","channels":[{"sampler":0,"target":{"node":1,"path":"rotation"}},{"sampler":1,"target":{"node":1,"path":"translation"}},{"sampler":2,"target":{"node":1,"path":"scale"}},{"sampler":3,"target":{"node":2,"path":"rotation"}},{"sampler":4,"target":{"node":2,"path":"translation"}},{"sampler":5,"target":{"node":2,"path":"scale"}},{"sampler":6,"target":{"node":3,"path":"rotation"}},{"sampler":7,"target":{"node":3,"path":"translation"}},{"sampler":8,"target":{"node":3,"path":"scale"}},{"sampler":9,"target":{"node":4,"path":"rotation"}},{"sampler":10,"target":{"node":4,"path":"translation"}},{"sampler":11,"target":{"node":4,"path":"scale"}},{"sampler":12,"target":{"node":5,"path":"rotation"}},{"sampler":13,"target":{"node":5,"path":"translation"}},{"sampler":14,"target":{"node":5,"path":"scale"}},{"sampler":15,"target":{"node":6,"path":"rotation"}},{"sampler":16,"target":{"node":6,"path":"translation"}},{"sampler":17,"target":{"node":6,"path":"scale"}},{"sampler":18,"target":{"node":7,"path":"rotation"}},{"sampler":19,"target":{"node":7,"path":"translation"}},{"sampler":20,"target":{"node":7,"path":"scale"}}],"samplers":[{"input":84,"output":85},{"input":86,"output":87},{"input":88,"output":89},{"input":90,"output":91},{"input":92,"output":93},{"input":94,"output":95},{"input":96,"output":97},{"input":98,"output":99},{"input":100,"output":101},{"input":102,"output":103},{"input":104,"output":105},{"input":106,"output":107},{"input":108,"output":109},{"input":110,"output":111},{"input":112,"output":113},{"input":114,"output":115},{"input":116,"output":117},{"input":118,"output":119},{"input":120,"output":121},{"input":122,"output":123},{"input":124,"output":125}]},{"name":"inventory_inspect","channels":[{"sampler":0,"target":{"node":1,"path":"rotation"}},{"sampler":1,"target":{"node":1,"path":"translation"}},{"sampler":2,"target":{"node":1,"path":"scale"}},{"sampler":3,"target":{"node":2,"path":"rotation"}},{"sampler":4,"target":{"node":2,"path":"translation"}},{"sampler":5,"target":{"node":2,"path":"scale"}},{"sampler":6,"target":{"node":3,"path":"rotation"}},{"sampler":7,"target":{"node":3,"path":"translation"}},{"sampler":8,"target":{"node":3,"path":"scale"}},{"sampler":9,"target":{"node":4,"path":"rotation"}},{"sampler":10,"target":{"node":4,"path":"translation"}},{"sampler":11,"target":{"node":4,"path":"scale"}},{"sampler":12,"target":{"node":5,"path":"rotation"}},{"sampler":13,"target":{"node":5,"path":"translation"}},{"sampler":14,"target":{"node":5,"path":"scale"}},{"sampler":15,"target":{"node":6,"path":"rotation"}},{"sampler":16,"target":{"node":6,"path":"translation"}},{"sampler":17,"target":{"node":6,"path":"scale"}},{"sampler":18,"target":{"node":7,"path":"rotation"}},{"sampler":19,"target":{"node":7,"path":"translation"}},{"sampler":20,"target":{"node":7,"path":"scale"}}],"samplers":[{"input":126,"output":127},{"input":128,"output":129},{"input":130,"output":131},{"input":132,"output":133},{"input":134,"output":135},{"input":136,"output":137},{"input":138,"output":139},{"input":140,"output":141},{"input":142,"output":143},{"input":144,"output":145},{"input":146,"output":147},{"input":148,"output":149},{"input":150,"output":151},{"input":152,"output":153},{"input":154,"output":155},{"input":156,"output":157},{"input":158,"output":159},{"input":160,"output":161},{"input":162,"output":163},{"input":164,"output":165},{"input":166,"output":167}]},{"name":"inventory_icon","channels":[{"sampler":0,"target":{"node":1,"path":"rotation"}},{"sampler":1,"target":{"node":1,"path":"translation"}},{"sampler":2,"target":{"node":1,"path":"scale"}},{"sampler":3,"target":{"node":2,"path":"rotation"}},{"sampler":4,"target":{"node":2,"path":"translation"}},{"sampler":5,"target":{"node":2,"path":"scale"}},{"sampler":6,"target":{"node":3,"path":"rotation"}},{"sampler":7,"target":{"node":3,"path":"translation"}},{"sampler":8,"target":{"node":3,"path":"scale"}},{"sampler":9,"target":{"node":4,"path":"rotation"}},{"sampler":10,"target":{"node":4,"path":"translation"}},{"sampler":11,"target":{"node":4,"path":"scale"}},{"sampler":12,"target":{"node":5,"path":"rotation"}},{"sampler":13,"target":{"node":5,"path":"translation"}},{"sampler":14,"target":{"node":5,"path":"scale"}},{"sampler":15,"target":{"node":6,"path":"rotation"}},{"sampler":16,"target":{"node":6,"path":"translation"}},{"sampler":17,"target":{"node":6,"path":"scale"}},{"sampler":18,"target":{"node":7,"path":"rotation"}},{"sampler":19,"target":{"node":7,"path":"translation"}},{"sampler":20,"target":{"node":7,"path":"scale"}}],"samplers":[{"input":168,"output":169},{"input":170,"output":171},{"input":172,"output":173},{"input":174,"output":175},{"input":176,"output":177},{"input":178,"output":179},{"input":180,"output":181},{"input":182,"output":183},{"input":184,"output":185},{"input":186,"output":187},{"input":188,"output":189},{"input":190,"output":191},{"input":192,"output":193},{"input":194,"output":195},{"input":196,"output":197},{"input":198,"output":199},{"input":200,"output":201},{"input":202,"output":203},{"input":204,"output":205},{"input":206,"output":207},{"input":208,"output":209}]}],"bufferViews":[{"buffer":0,"byteLength":4,"byteOffset":3232800},{"buffer":0,"byteLength":16,"byteOffset":3231480},{"buffer":0,"byteLength":4,"byteOffset":3232804},{"buffer":0,"byteLength":12,"byteOffset":3232008},{"buffer":0,"byteLength":4,"byteOffset":3232808},{"buffer":0,"byteLength":12,"byteOffset":3232020},{"buffer":0,"byteLength":4,"byteOffset":3232812},{"buffer":0,"byteLength":16,"byteOffset":3231496},{"buffer":0,"byteLength":4,"byteOffset":3232816},{"buffer":0,"byteLength":12,"byteOffset":3232032},{"buffer":0,"byteLength":4,"byteOffset":3232820},{"buffer":0,"byteLength":12,"byteOffset":3232044},{"buffer":0,"byteLength":4,"byteOffset":3232824},{"buffer":0,"byteLength":16,"byteOffset":3231512},{"buffer":0,"byteLength":4,"byteOffset":3232828},{"buffer":0,"byteLength":12,"byteOffset":3232056},{"buffer":0,"byteLength":4,"byteOffset":3232832},{"buffer":0,"byteLength":12,"byteOffset":3232068},{"buffer":0,"byteLength":4,"byteOffset":3232836},{"buffer":0,"byteLength":16,"byteOffset":3231528},{"buffer":0,"byteLength":4,"byteOffset":3232840},{"buffer":0,"byteLength":12,"byteOffset":3232080},{"buffer":0,"byteLength":4,"byteOffset":3232844},{"buffer":0,"byteLength":12,"byteOffset":3232092},{"buffer":0,"byteLength":4,"byteOffset":3232848},{"buffer":0,"byteLength":16,"byteOffset":3231544},{"buffer":0,"byteLength":4,"byteOffset":3232852},{"buffer":0,"byteLength":12,"byteOffset":3232104},{"buffer":0,"byteLength":4,"byteOffset":3232856},{"buffer":0,"byteLength":12,"byteOffset":3232116},{"buffer":0,"byteLength":4,"byteOffset":3232860},{"buffer":0,"byteLength":16,"byteOffset":3231560},{"buffer":0,"byteLength":4,"byteOffset":3232864},{"buffer":0,"byteLength":12,"byteOffset":3232128},{"buffer":0,"byteLength":4,"byteOffset":3232868},{"buffer":0,"byteLength":12,"byteOffset":3232140},{"buffer":0,"byteLength":4,"byteOffset":3232872},{"buffer":0,"byteLength":16,"byteOffset":3231576},{"buffer":0,"byteLength":4,"byteOffset":3232876},{"buffer":0,"byteLength":12,"byteOffset":3232152},{"buffer":0,"byteLength":4,"byteOffset":3232880},{"buffer":0,"byteLength":12,"byteOffset":3232164},{"buffer":0,"byteLength":4,"byteOffset":3232884},{"buffer":0,"byteLength":16,"byteOffset":3231592},{"buffer":0,"byteLength":4,"byteOffset":3232888},{"buffer":0,"byteLength":12,"byteOffset":3232176},{"buffer":0,"byteLength":4,"byteOffset":3232892},{"buffer":0,"byteLength":12,"byteOffset":3232188},{"buffer":0,"byteLength":4,"byteOffset":3232896},{"buffer":0,"byteLength":16,"byteOffset":3231608},{"buffer":0,"byteLength":4,"byteOffset":3232900},{"buffer":0,"byteLength":12,"byteOffset":3232200},{"buffer":0,"byteLength":4,"byteOffset":3232904},{"buffer":0,"byteLength":12,"byteOffset":3232212},{"buffer":0,"byteLength":4,"byteOffset":3232908},{"buffer":0,"byteLength":16,"byteOffset":3231624},{"buffer":0,"byteLength":292,"byteOffset":3229672},{"buffer":0,"byteLength":876,"byteOffset":3224616},{"buffer":0,"byteLength":4,"byteOffset":3232912},{"buffer":0,"byteLength":12,"byteOffset":3232224},{"buffer":0,"byteLength":248,"byteOffset":3230828},{"buffer":0,"byteLength":992,"byteOffset":3222736},{"buffer":0,"byteLength":296,"byteOffset":3229376},{"buffer":0,"byteLength":888,"byteOffset":3223728},{"buffer":0,"byteLength":20,"byteOffset":3231460},{"buffer":0,"byteLength":60,"byteOffset":3231328},{"buffer":0,"byteLength":4,"byteOffset":3232916},{"buffer":0,"byteLength":16,"byteOffset":3231640},{"buffer":0,"byteLength":4,"byteOffset":3232920},{"buffer":0,"byteLength":12,"byteOffset":3232236},{"buffer":0,"byteLength":4,"byteOffset":3232924},{"buffer":0,"byteLength":12,"byteOffset":3232248},{"buffer":0,"byteLength":4,"byteOffset":3232928},{"buffer":0,"byteLength":16,"byteOffset":3231656},{"buffer":0,"byteLength":4,"byteOffset":3232932},{"buffer":0,"byteLength":12,"byteOffset":3232260},{"buffer":0,"byteLength":4,"byteOffset":3232936},{"buffer":0,"byteLength":12,"byteOffset":3232272},{"buffer":0,"byteLength":4,"byteOffset":3232940},{"buffer":0,"byteLength":16,"byteOffset":3231672},{"buffer":0,"byteLength":4,"byteOffset":3232944},{"buffer":0,"byteLength":12,"byteOffset":3232284},{"buffer":0,"byteLength":4,"byteOffset":3232948},{"buffer":0,"byteLength":12,"byteOffset":3232296},{"buffer":0,"byteLength":4,"byteOffset":3232952},{"buffer":0,"byteLength":16,"byteOffset":3231688},{"buffer":0,"byteLength":4,"byteOffset":3232956},{"buffer":0,"byteLength":12,"byteOffset":3232308},{"buffer":0,"byteLength":4,"byteOffset":3232960},{"buffer":0,"byteLength":12,"byteOffset":3232320},{"buffer":0,"byteLength":4,"byteOffset":3232964},{"buffer":0,"byteLength":16,"byteOffset":3231704},{"buffer":0,"byteLength":4,"byteOffset":3232968},{"buffer":0,"byteLength":12,"byteOffset":3232332},{"buffer":0,"byteLength":4,"byteOffset":3232972},{"buffer":0,"byteLength":12,"byteOffset":3232344},{"buffer":0,"byteLength":4,"byteOffset":3232976},{"buffer":0,"byteLength":16,"byteOffset":3231720},{"buffer":0,"byteLength":36,"byteOffset":3231388},{"buffer":0,"byteLength":108,"byteOffset":3231220},{"buffer":0,"byteLength":4,"byteOffset":3232980},{"buffer":0,"byteLength":12,"byteOffset":3232356},{"buffer":0,"byteLength":4,"byteOffset":3232984},{"buffer":0,"byteLength":16,"byteOffset":3231736},{"buffer":0,"byteLength":4,"byteOffset":3232988},{"buffer":0,"byteLength":12,"byteOffset":3232368},{"buffer":0,"byteLength":4,"byteOffset":3232992},{"buffer":0,"byteLength":12,"byteOffset":3232380},{"buffer":0,"byteLength":4,"byteOffset":3232996},{"buffer":0,"byteLength":16,"byteOffset":3231752},{"buffer":0,"byteLength":4,"byteOffset":3233000},{"buffer":0,"byteLength":12,"byteOffset":3232392},{"buffer":0,"byteLength":4,"byteOffset":3233004},{"buffer":0,"byteLength":12,"byteOffset":3232404},{"buffer":0,"byteLength":36,"byteOffset":3231424},{"buffer":0,"byteLength":144,"byteOffset":3231076},{"buffer":0,"byteLength":4,"byteOffset":3233008},{"buffer":0,"byteLength":12,"byteOffset":3232416},{"buffer":0,"byteLength":4,"byteOffset":3233012},{"buffer":0,"byteLength":12,"byteOffset":3232428},{"buffer":0,"byteLength":4,"byteOffset":3233016},{"buffer":0,"byteLength":16,"byteOffset":3231768},{"buffer":0,"byteLength":4,"byteOffset":3233020},{"buffer":0,"byteLength":12,"byteOffset":3232440},{"buffer":0,"byteLength":4,"byteOffset":3233024},{"buffer":0,"byteLength":12,"byteOffset":3232452},{"buffer":0,"byteLength":4,"byteOffset":3233028},{"buffer":0,"byteLength":16,"byteOffset":3231784},{"buffer":0,"byteLength":4,"byteOffset":3233032},{"buffer":0,"byteLength":12,"byteOffset":3232464},{"buffer":0,"byteLength":4,"byteOffset":3233036},{"buffer":0,"byteLength":12,"byteOffset":3232476},{"buffer":0,"byteLength":4,"byteOffset":3233040},{"buffer":0,"byteLength":16,"byteOffset":3231800},{"buffer":0,"byteLength":4,"byteOffset":3233044},{"buffer":0,"byteLength":12,"byteOffset":3232488},{"buffer":0,"byteLength":4,"byteOffset":3233048},{"buffer":0,"byteLength":12,"byteOffset":3232500},{"buffer":0,"byteLength":4,"byteOffset":3233052},{"buffer":0,"byteLength":16,"byteOffset":3231816},{"buffer":0,"byteLength":4,"byteOffset":3233056},{"buffer":0,"byteLength":12,"byteOffset":3232512},{"buffer":0,"byteLength":4,"byteOffset":3233060},{"buffer":0,"byteLength":12,"byteOffset":3232524},{"buffer":0,"byteLength":4,"byteOffset":3233064},{"buffer":0,"byteLength":16,"byteOffset":3231832},{"buffer":0,"byteLength":4,"byteOffset":3233068},{"buffer":0,"byteLength":12,"byteOffset":3232536},{"buffer":0,"byteLength":4,"byteOffset":3233072},{"buffer":0,"byteLength":12,"byteOffset":3232548},{"buffer":0,"byteLength":4,"byteOffset":3233076},{"buffer":0,"byteLength":16,"byteOffset":3231848},{"buffer":0,"byteLength":4,"byteOffset":3233080},{"buffer":0,"byteLength":12,"byteOffset":3232560},{"buffer":0,"byteLength":4,"byteOffset":3233084},{"buffer":0,"byteLength":12,"byteOffset":3232572},{"buffer":0,"byteLength":4,"byteOffset":3233088},{"buffer":0,"byteLength":16,"byteOffset":3231864},{"buffer":0,"byteLength":4,"byteOffset":3233092},{"buffer":0,"byteLength":12,"byteOffset":3232584},{"buffer":0,"byteLength":4,"byteOffset":3233096},{"buffer":0,"byteLength":12,"byteOffset":3232596},{"buffer":0,"byteLength":4,"byteOffset":3233100},{"buffer":0,"byteLength":16,"byteOffset":3231880},{"buffer":0,"byteLength":4,"byteOffset":3233104},{"buffer":0,"byteLength":12,"byteOffset":3232608},{"buffer":0,"byteLength":4,"byteOffset":3233108},{"buffer":0,"byteLength":12,"byteOffset":3232620},{"buffer":0,"byteLength":4,"byteOffset":3233112},{"buffer":0,"byteLength":16,"byteOffset":3231896},{"buffer":0,"byteLength":4,"byteOffset":3233116},{"buffer":0,"byteLength":12,"byteOffset":3232632},{"buffer":0,"byteLength":4,"byteOffset":3233120},{"buffer":0,"byteLength":12,"byteOffset":3232644},{"buffer":0,"byteLength":4,"byteOffset":3233124},{"buffer":0,"byteLength":16,"byteOffset":3231912},{"buffer":0,"byteLength":4,"byteOffset":3233128},{"buffer":0,"byteLength":12,"byteOffset":3232656},{"buffer":0,"byteLength":4,"byteOffset":3233132},{"buffer":0,"byteLength":12,"byteOffset":3232668},{"buffer":0,"byteLength":4,"byteOffset":3233136},{"buffer":0,"byteLength":16,"byteOffset":3231928},{"buffer":0,"byteLength":4,"byteOffset":3233140},{"buffer":0,"byteLength":12,"byteOffset":3232680},{"buffer":0,"byteLength":4,"byteOffset":3233144},{"buffer":0,"byteLength":12,"byteOffset":3232692},{"buffer":0,"byteLength":4,"byteOffset":3233148},{"buffer":0,"byteLength":16,"byteOffset":3231944},{"buffer":0,"byteLength":4,"byteOffset":3233152},{"buffer":0,"byteLength":12,"byteOffset":3232704},{"buffer":0,"byteLength":4,"byteOffset":3233156},{"buffer":0,"byteLength":12,"byteOffset":3232716},{"buffer":0,"byteLength":4,"byteOffset":3233160},{"buffer":0,"byteLength":16,"byteOffset":3231960},{"buffer":0,"byteLength":4,"byteOffset":3233164},{"buffer":0,"byteLength":12,"byteOffset":3232728},{"buffer":0,"byteLength":4,"byteOffset":3233168},{"buffer":0,"byteLength":12,"byteOffset":3232740},{"buffer":0,"byteLength":4,"byteOffset":3233172},{"buffer":0,"byteLength":16,"byteOffset":3231976},{"buffer":0,"byteLength":4,"byteOffset":3233176},{"buffer":0,"byteLength":12,"byteOffset":3232752},{"buffer":0,"byteLength":4,"byteOffset":3233180},{"buffer":0,"byteLength":12,"byteOffset":3232764},{"buffer":0,"byteLength":4,"byteOffset":3233184},{"buffer":0,"byteLength":16,"byteOffset":3231992},{"buffer":0,"byteLength":4,"byteOffset":3233188},{"buffer":0,"byteLength":12,"byteOffset":3232776},{"buffer":0,"byteLength":4,"byteOffset":3233192},{"buffer":0,"byteLength":12,"byteOffset":3232788},{"buffer":0,"byteLength":155220,"byteOffset":2601856,"target":34962},{"buffer":0,"byteLength":103480,"byteOffset":2912296,"target":34962},{"buffer":0,"byteLength":155220,"byteOffset":2757076,"target":34962},{"buffer":0,"byteLength":206960,"byteOffset":1512780,"target":34962},{"buffer":0,"byteLength":103480,"byteOffset":3015776,"target":34962},{"buffer":0,"byteLength":103480,"byteOffset":3119256,"byteStride":8,"target":34962},{"buffer":0,"byteLength":206960,"byteOffset":1719740,"target":34962},{"buffer":0,"byteLength":161220,"byteOffset":2440636,"target":34963},{"buffer":0,"byteLength":576,"byteOffset":3225492,"target":34963},{"buffer":0,"byteLength":448,"byteOffset":3227220},{"buffer":0,"byteLength":256968,"byteOffset":998844,"target":34962},{"buffer":0,"byteLength":171312,"byteOffset":1926700,"target":34962},{"buffer":0,"byteLength":256968,"byteOffset":1255812,"target":34962},{"buffer":0,"byteLength":342624,"target":34962},{"buffer":0,"byteLength":171312,"byteOffset":2098012,"target":34962},{"buffer":0,"byteLength":171312,"byteOffset":2269324,"byteStride":8,"target":34962},{"buffer":0,"byteLength":342624,"byteOffset":342624,"target":34962},{"buffer":0,"byteLength":432,"byteOffset":3228116,"target":34962},{"buffer":0,"byteLength":288,"byteOffset":3229964,"target":34962},{"buffer":0,"byteLength":432,"byteOffset":3228548,"target":34962},{"buffer":0,"byteLength":576,"byteOffset":3226068,"target":34962},{"buffer":0,"byteLength":288,"byteOffset":3230252,"target":34962},{"buffer":0,"byteLength":288,"byteOffset":3230540,"byteStride":8,"target":34962},{"buffer":0,"byteLength":576,"byteOffset":3226644,"target":34962},{"buffer":0,"byteLength":313596,"byteOffset":685248,"target":34963},{"buffer":0,"byteLength":396,"byteOffset":3228980,"target":34963},{"buffer":0,"byteLength":448,"byteOffset":3227668}],"buffers":[{"byteLength":3233196,"uri":"weapon_rif_ak47.bin"}],"images":[{"name":"ak47_color_psd_1f318532.vtex","uri":"ak47_color_psd_1f318532.png"},{"name":"ak47_normal_psd_57f37ac9.vtex","uri":"ak47_normal_psd_57f37ac9.png"},{"name":"ak47_ao_psd_286fb1af_orm_2165450181.png","uri":"ak47_ao_psd_286fb1af_orm_2165450181.png"},{"name":"sticker_gaps_vmat_g_tcolor_44181499.vtex","uri":"sticker_gaps_vmat_g_tcolor_44181499.png"},{"name":"default_normal_tga_4fc2d3dd.vtex","uri":"default_normal_tga_4fc2d3dd.png"},{"name":"default_ao_tga_559f1ac6_orm_289720758.png","uri":"default_ao_tga_559f1ac6_orm_289720758.png"},{"name":"ak47_default_color_psd_5b66a23b.vtex","uri":"ak47_default_color_psd_5b66a23b.png"},{"name":"ak47_default_normal_png_c8c5793e.vtex","uri":"ak47_default_normal_png_c8c5793e.png"},{"name":"ak47_default_ao_png_b00f6e2e_orm_1322888879.png","uri":"ak47_default_ao_png_b00f6e2e_orm_1322888879.png"}],"materials":[{"extras":{"vmat":{"Name":"materials/models/weapons/v_models/rif_ak47/ak47.vmat","ShaderName":"csgo_weapon.vfx","IntParams":{"F_STICKERS":1,"g_bEnableSticker0":0,"g_bEnableSticker1":0,"g_bEnableSticker2":0,"g_bEnableSticker3":0,"g_bEnableSticker4":0,"g_bFogEnabled":1,"g_nScaleTexCoordUByModelScaleAxis":0,"g_nScaleTexCoordVByModelScaleAxis":0,"g_nTextureAddressModeU":0,"g_nTextureAddressModeV":0},"FloatParams":{"g_flMetalnessTransitionBias":2,"g_flModelTintAmount":1,"g_flSticker0Rotation":0,"g_flSticker0Wear":0,"g_flSticker1Rotation":0,"g_flSticker1Wear":0,"g_flSticker2Rotation":0,"g_flSticker2Wear":0,"g_flSticker3Rotation":0,"g_flSticker3Wear":0,"g_flSticker4Rotation":0,"g_flSticker4Wear":0,"g_flTexCoordRotation":0,"g_fWearScratchesSticker0":1,"g_fWearScratchesSticker1":1,"g_fWearScratchesSticker2":1,"g_fWearScratchesSticker3":1,"g_fWearScratchesSticker4":1},"VectorParams":{"g_vColorTint":[1,1,1,0],"g_vMetalnessRemapRange":[0,1,0,0],"g_vSticker0Offset":[0.154,-0.438,0,0],"g_vSticker0Scale":[15.35,15.35,0,0],"g_vSticker1Offset":[0.065,-0.432,0,0],"g_vSticker1Scale":[15.35,15.35,0,0],"g_vSticker2Offset":[-0.032,-0.438,0,0],"g_vSticker2Scale":[15.35,15.35,0,0],"g_vSticker3Offset":[-0.164,-0.444,0,0],"g_vSticker3Scale":[15.35,15.35,0,0],"g_vSticker4Offset":[0,0,0,0],"g_vSticker4Scale":[0,0,0,0],"g_vTexCoordCenter":[0.5,0.5,0,0],"g_vTexCoordOffset":[0,0,0,0],"g_vTexCoordScale":[1,1,0,0],"g_vTexCoordScrollSpeed":[0,0,0,0],"g_vWearBiasSticker0":[1,1,0,0],"g_vWearBiasSticker1":[1,1,0,0],"g_vWearBiasSticker2":[1,1,0,0],"g_vWearBiasSticker3":[1,1,0,0],"g_vWearBiasSticker4":[1,1,0,0]},"TextureParams":{"g_tAmbientOcclusion":"materials/models/weapons/v_models/rif_ak47/ak47_ao_psd_286fb1af.vtex","g_tColor":"materials/models/weapons/v_models/rif_ak47/ak47_color_psd_1f318532.vtex","g_tGlitterNormalSticker0":"materials/default/stickers/squares_glitter_normal_tga_25145674.vtex","g_tGlitterNormalSticker1":"materials/default/stickers/squares_glitter_normal_tga_25145674.vtex","g_tGlitterNormalSticker2":"materials/default/stickers/squares_glitter_normal_tga_25145674.vtex","g_tGlitterNormalSticker3":"materials/default/stickers/squares_glitter_normal_tga_25145674.vtex","g_tGlitterNormalSticker4":"materials/default/stickers/squares_glitter_normal_tga_25145674.vtex","g_tHoloSpectrumSticker0":"materials/default/stickers/default_holospectrum_tga_e12c79bd.vtex","g_tHoloSpectrumSticker1":"materials/default/stickers/default_holospectrum_tga_e12c79bd.vtex","g_tHoloSpectrumSticker2":"materials/default/stickers/default_holospectrum_tga_e12c79bd.vtex","g_tHoloSpectrumSticker3":"materials/default/stickers/default_holospectrum_tga_e12c79bd.vtex","g_tHoloSpectrumSticker4":"materials/default/stickers/default_holospectrum_tga_e12c79bd.vtex","g_tMetalness":"materials/models/weapons/v_models/rif_ak47/ak47_rough_psd_73589151.vtex","g_tNormal":"materials/models/weapons/v_models/rif_ak47/ak47_normal_psd_57f37ac9.vtex","g_tNormalRoughnessSticker0":"materials/default/default_normal_tga_4c6e7391.vtex","g_tNormalRoughnessSticker1":"materials/default/default_normal_tga_4c6e7391.vtex","g_tNormalRoughnessSticker2":"materials/default/default_normal_tga_4c6e7391.vtex","g_tNormalRoughnessSticker3":"materials/default/default_normal_tga_4c6e7391.vtex","g_tNormalRoughnessSticker4":"materials/default/default_normal_tga_4c6e7391.vtex","g_tSfxMaskSticker0":"materials/default/stickers/default_holomask_tga_daef1ed1.vtex","g_tSfxMaskSticker1":"materials/default/stickers/default_holomask_tga_daef1ed1.vtex","g_tSfxMaskSticker2":"materials/default/stickers/default_holomask_tga_daef1ed1.vtex","g_tSfxMaskSticker3":"materials/default/stickers/default_holomask_tga_daef1ed1.vtex","g_tSfxMaskSticker4":"materials/default/stickers/default_holomask_tga_daef1ed1.vtex","g_tSticker0":"materials/default/stickers/sticker_default_psd_7f7731d3.vtex","g_tSticker1":"materials/default/stickers/sticker_default_psd_7f7731d3.vtex","g_tSticker2":"materials/default/stickers/sticker_default_psd_7f7731d3.vtex","g_tSticker3":"materials/default/stickers/sticker_default_psd_7f7731d3.vtex","g_tSticker4":"materials/default/stickers/sticker_default_psd_7f7731d3.vtex","g_tStickerScratches":"materials/default/stickers/sticker_default_scratches_psd_a9ad199b.vtex","g_tStickerWepInputs":"weapons/models/ak47/materials/stickers/weapon_rif_ak47_sticker_mask_legacy_tga_1bdb00a.vtex"}}},"name":"ak47","normalTexture":{"index":1},"occlusionTexture":{"index":2},"pbrMetallicRoughness":{"baseColorTexture":{"index":0},"metallicRoughnessTexture":{"index":2}}},{"extras":{"vmat":{"Name":"weapons/models/shared/materials/sticker_gaps/sticker_gaps.vmat","ShaderName":"csgo_weapon.vfx","IntParams":{"F_DO_NOT_CAST_SHADOWS":1,"F_DONT_FLIP_BACKFACE_NORMALS":1,"F_RENDER_BACKFACES":1,"F_STICKERS":1,"F_TRANSLUCENT":1,"g_bAutomaticPBRColorFittingSticker0":1,"g_bAutomaticPBRColorFittingSticker1":1,"g_bAutomaticPBRColorFittingSticker2":1,"g_bAutomaticPBRColorFittingSticker3":1,"g_bAutomaticPBRColorFittingSticker4":1,"g_bClampSpectrumVSticker0":1,"g_bClampSpectrumVSticker1":1,"g_bClampSpectrumVSticker2":1,"g_bClampSpectrumVSticker3":1,"g_bClampSpectrumVSticker4":1,"g_bEnableSticker0":0,"g_bEnableSticker1":0,"g_bEnableSticker2":0,"g_bEnableSticker3":0,"g_bEnableSticker4":0,"g_bFogEnabled":1,"g_bGlitterSticker0":0,"g_bGlitterSticker1":0,"g_bGlitterSticker2":0,"g_bGlitterSticker3":0,"g_bGlitterSticker4":0,"g_bHolographicSticker0":0,"g_bHolographicSticker1":0,"g_bHolographicSticker2":0,"g_bHolographicSticker3":0,"g_bHolographicSticker4":0,"g_bLegacyTintMultiplySticker0":0,"g_bLegacyTintMultiplySticker1":0,"g_bLegacyTintMultiplySticker2":0,"g_bLegacyTintMultiplySticker3":0,"g_bLegacyTintMultiplySticker4":0,"g_bMetallicSticker0":0,"g_bMetallicSticker1":0,"g_bMetallicSticker2":0,"g_bMetallicSticker3":0,"g_bMetallicSticker4":0,"g_bPaperBackingSticker0":0,"g_bPaperBackingSticker1":0,"g_bPaperBackingSticker2":0,"g_bPaperBackingSticker3":0,"g_bPaperBackingSticker4":0,"g_nScaleTexCoordUByModelScaleAxis":0,"g_nScaleTexCoordVByModelScaleAxis":0,"g_nTextureAddressModeU":0,"g_nTextureAddressModeV":0},"FloatParams":{"g_flAlphaTestReference":0.5,"g_flAntiAliasedEdgeStrength":1,"g_flColorBoostSticker0":1,"g_flColorBoostSticker1":1,"g_flColorBoostSticker2":1,"g_flColorBoostSticker3":1,"g_flColorBoostSticker4":1,"g_flGlitterScaleSticker0":1,"g_flGlitterScaleSticker1":1,"g_flGlitterScaleSticker2":1,"g_flGlitterScaleSticker3":1,"g_flGlitterScaleSticker4":1,"g_flMetalnessTransitionBias":2,"g_flModelTintAmount":1,"g_flSfxColorBoostSticker0":1,"g_flSfxColorBoostSticker1":1,"g_flSfxColorBoostSticker2":1,"g_flSfxColorBoostSticker3":1,"g_flSfxColorBoostSticker4":1,"g_flSticker0Rotation":0,"g_flSticker0Wear":0,"g_flSticker1Rotation":0,"g_flSticker1Wear":0,"g_flSticker2Rotation":0,"g_flSticker2Wear":0,"g_flSticker3Rotation":0,"g_flSticker3Wear":0,"g_flSticker4Rotation":0,"g_flSticker4Wear":0,"g_flTexCoordRotation":0,"g_flTintSaturateSticker0":1,"g_flTintSaturateSticker1":1,"g_flTintSaturateSticker2":1,"g_flTintSaturateSticker3":1,"g_flTintSaturateSticker4":1,"g_fWearScratchesSticker0":1,"g_fWearScratchesSticker1":1,"g_fWearScratchesSticker2":1,"g_fWearScratchesSticker3":1,"g_fWearScratchesSticker4":1},"VectorParams":{"g_vColorTint":[1,1,1,0],"g_vColorTintSticker0":[1,1,1,0],"g_vColorTintSticker1":[1,1,1,0],"g_vColorTintSticker2":[1,1,1,0],"g_vColorTintSticker3":[1,1,1,0],"g_vColorTintSticker4":[1,1,1,0],"g_vMetalnessRemapRange":[0,1,0,0],"g_vSticker0Offset":[0.148,-0.434,0,0],"g_vSticker0Scale":[14.1,14.1,0,0],"g_vSticker1Offset":[0.061,-0.434,0,0],"g_vSticker1Scale":[14.1,14.1,0,0],"g_vSticker2Offset":[-0.025,-0.435,0,0],"g_vSticker2Scale":[14.6,14.6,0,0],"g_vSticker3Offset":[-0.164,-0.444,0,0],"g_vSticker3Scale":[14.7,14.7,0,0],"g_vSticker4Offset":[0,0,0,0],"g_vSticker4Scale":[0,0,0,0],"g_vTexCoordCenter":[0.5,0.5,0,0],"g_vTexCoordOffset":[0,0,0,0],"g_vTexCoordScale":[1,1,0,0],"g_vTexCoordScrollSpeed":[0,0,0,0],"g_vWearBiasSticker0":[1,1,0,0],"g_vWearBiasSticker1":[1,1,0,0],"g_vWearBiasSticker2":[1,1,0,0],"g_vWearBiasSticker3":[1,1,0,0],"g_vWearBiasSticker4":[1,1,0,0],"TextureColor1":[0.176471,0.176471,0.176471,1],"TextureColorSticker0":[0,0,0,0],"TextureColorSticker1":[0,0,0,0],"TextureColorSticker2":[0,0,0,0],"TextureColorSticker3":[0,0,0,0],"TextureColorSticker4":[0,0,0,0],"TextureStickerCavity":[0.501961,0.501961,0.501961,0],"TextureStickerMask":[1,1,1,0],"TextureWearMaskSticker0":[0,0,0,0],"TextureWearMaskSticker1":[0,0,0,0],"TextureWearMaskSticker2":[0,0,0,0],"TextureWearMaskSticker3":[0,0,0,0],"TextureWearMaskSticker4":[0,0,0,0]},"TextureParams":{"g_tAmbientOcclusion":"materials/default/default_ao_tga_559f1ac6.vtex","g_tColor":"weapons/models/shared/materials/sticker_gaps/sticker_gaps_vmat_g_tcolor_44181499.vtex","g_tGlitterNormalSticker0":"materials/default/default_normal_tga_cc5ec219.vtex","g_tGlitterNormalSticker1":"materials/default/default_normal_tga_cc5ec219.vtex","g_tGlitterNormalSticker2":"materials/default/default_normal_tga_cc5ec219.vtex","g_tGlitterNormalSticker3":"materials/default/default_normal_tga_cc5ec219.vtex","g_tGlitterNormalSticker4":"materials/default/default_normal_tga_cc5ec219.vtex","g_tHoloSpectrumSticker0":"materials/default/stickers/default_holospectrum_tga_e12c79bd.vtex","g_tHoloSpectrumSticker1":"materials/default/stickers/default_holospectrum_tga_e12c79bd.vtex","g_tHoloSpectrumSticker2":"materials/default/stickers/default_holospectrum_tga_e12c79bd.vtex","g_tHoloSpectrumSticker3":"materials/default/stickers/default_holospectrum_tga_e12c79bd.vtex","g_tHoloSpectrumSticker4":"materials/default/stickers/default_holospectrum_tga_e12c79bd.vtex","g_tMetalness":"materials/default/default_rough_tga_30b0ca31.vtex","g_tNormal":"materials/default/default_normal_tga_4fc2d3dd.vtex","g_tNormalRoughnessSticker0":"materials/default/default_normal_tga_5cb77851.vtex","g_tNormalRoughnessSticker1":"materials/default/default_normal_tga_5cb77851.vtex","g_tNormalRoughnessSticker2":"materials/default/default_normal_tga_5cb77851.vtex","g_tNormalRoughnessSticker3":"materials/default/default_normal_tga_5cb77851.vtex","g_tNormalRoughnessSticker4":"materials/default/default_normal_tga_5cb77851.vtex","g_tSfxMaskSticker0":"materials/default/stickers/default_holomask_tga_daef1ed1.vtex","g_tSfxMaskSticker1":"materials/default/stickers/default_holomask_tga_daef1ed1.vtex","g_tSfxMaskSticker2":"materials/default/stickers/default_holomask_tga_daef1ed1.vtex","g_tSfxMaskSticker3":"materials/default/stickers/default_holomask_tga_daef1ed1.vtex","g_tSfxMaskSticker4":"materials/default/stickers/default_holomask_tga_daef1ed1.vtex","g_tSticker0":"materials/default/stickers/sticker_default_psd_7f7731d3.vtex","g_tSticker1":"materials/default/stickers/sticker_default_psd_7f7731d3.vtex","g_tSticker2":"materials/default/stickers/sticker_default_psd_7f7731d3.vtex","g_tSticker3":"materials/default/stickers/sticker_default_psd_7f7731d3.vtex","g_tSticker4":"materials/default/stickers/sticker_default_psd_7f7731d3.vtex","g_tStickerScratches":"materials/default/stickers/sticker_default_scratches_psd_a9ad199b.vtex","g_tStickerWepInputs":"weapons/models/shared/materials/sticker_gaps/sticker_gaps_vmat_g_tstickerwepinputs_b5b13ed7.vtex"}}},"name":"sticker_gaps","alphaMode":"BLEND","doubleSided":true,"normalTexture":{"index":4},"occlusionTexture":{"index":5},"pbrMetallicRoughness":{"baseColorTexture":{"index":3},"metallicRoughnessTexture":{"index":5}}},{"extras":{"vmat":{"Name":"weapons/models/ak47/materials/weapon_rif_ak47.vmat","ShaderName":"csgo_weapon.vfx","IntParams":{"F_STICKERS":1,"g_bEnableSticker0":0,"g_bEnableSticker1":0,"g_bEnableSticker2":0,"g_bEnableSticker3":0,"g_bEnableSticker4":0,"g_bFogEnabled":1,"g_nScaleTexCoordUByModelScaleAxis":0,"g_nScaleTexCoordVByModelScaleAxis":0,"g_nTextureAddressModeU":0,"g_nTextureAddressModeV":0},"FloatParams":{"g_flMetalnessTransitionBias":2,"g_flModelTintAmount":1,"g_flSticker0Rotation":0,"g_flSticker0Wear":0,"g_flSticker1Rotation":0,"g_flSticker1Wear":0,"g_flSticker2Rotation":0,"g_flSticker2Wear":0,"g_flSticker3Rotation":0,"g_flSticker3Wear":0,"g_flSticker4Rotation":0,"g_flSticker4Wear":0,"g_flTexCoordRotation":0},"VectorParams":{"g_vColorTint":[1,1,1,0],"g_vMetalnessRemapRange":[0,1,0,0],"g_vSticker0Offset":[0.148,-0.434,0,0],"g_vSticker0Scale":[14.1,14.1,0,0],"g_vSticker1Offset":[0.061,-0.434,0,0],"g_vSticker1Scale":[14.1,14.1,0,0],"g_vSticker2Offset":[-0.025,-0.435,0,0],"g_vSticker2Scale":[14.6,14.6,0,0],"g_vSticker3Offset":[-0.164,-0.444,0,0],"g_vSticker3Scale":[14.7,14.7,0,0],"g_vSticker4Offset":[0,0,0,0],"g_vSticker4Scale":[0,0,0,0],"g_vTexCoordCenter":[0.5,0.5,0,0],"g_vTexCoordOffset":[0,0,0,0],"g_vTexCoordScale":[1,1,0,0],"g_vTexCoordScrollSpeed":[0,0,0,0],"g_vWearBiasSticker0":[1,1,0,0],"g_vWearBiasSticker1":[1,1,0,0],"g_vWearBiasSticker2":[1,1,0,0],"g_vWearBiasSticker3":[1,1,0,0],"g_vWearBiasSticker4":[1,1,0,0]},"TextureParams":{"g_tAmbientOcclusion":"weapons/models/ak47/materials/ak47_default_ao_png_b00f6e2e.vtex","g_tColor":"weapons/models/ak47/materials/ak47_default_color_psd_5b66a23b.vtex","g_tGlitterNormalSticker0":"materials/default/stickers/squares_glitter_normal_tga_25145674.vtex","g_tGlitterNormalSticker1":"materials/default/stickers/squares_glitter_normal_tga_25145674.vtex","g_tGlitterNormalSticker2":"materials/default/stickers/squares_glitter_normal_tga_25145674.vtex","g_tGlitterNormalSticker3":"materials/default/stickers/squares_glitter_normal_tga_25145674.vtex","g_tGlitterNormalSticker4":"materials/default/stickers/squares_glitter_normal_tga_25145674.vtex","g_tHoloSpectrumSticker0":"materials/default/stickers/default_holospectrum_tga_e12c79bd.vtex","g_tHoloSpectrumSticker1":"materials/default/stickers/default_holospectrum_tga_e12c79bd.vtex","g_tHoloSpectrumSticker2":"materials/default/stickers/default_holospectrum_tga_e12c79bd.vtex","g_tHoloSpectrumSticker3":"materials/default/stickers/default_holospectrum_tga_e12c79bd.vtex","g_tHoloSpectrumSticker4":"materials/default/stickers/default_holospectrum_tga_e12c79bd.vtex","g_tMetalness":"weapons/models/ak47/materials/ak47_default_rough_psd_469dc584.vtex","g_tNormal":"weapons/models/ak47/materials/ak47_default_normal_png_c8c5793e.vtex","g_tNormalRoughnessSticker0":"materials/default/default_normal_tga_b59982b.vtex","g_tNormalRoughnessSticker1":"materials/default/default_normal_tga_b59982b.vtex","g_tNormalRoughnessSticker2":"materials/default/default_normal_tga_b59982b.vtex","g_tNormalRoughnessSticker3":"materials/default/default_normal_tga_b59982b.vtex","g_tNormalRoughnessSticker4":"materials/default/default_normal_tga_b59982b.vtex","g_tSfxMaskSticker0":"materials/default/stickers/default_holomask_tga_daef1ed1.vtex","g_tSfxMaskSticker1":"materials/default/stickers/default_holomask_tga_daef1ed1.vtex","g_tSfxMaskSticker2":"materials/default/stickers/default_holomask_tga_daef1ed1.vtex","g_tSfxMaskSticker3":"materials/default/stickers/default_holomask_tga_daef1ed1.vtex","g_tSfxMaskSticker4":"materials/default/stickers/default_holomask_tga_daef1ed1.vtex","g_tSticker0":"materials/default/stickers/sticker_default_psd_7f7731d3.vtex","g_tSticker1":"materials/default/stickers/sticker_default_psd_7f7731d3.vtex","g_tSticker2":"materials/default/stickers/sticker_default_psd_7f7731d3.vtex","g_tSticker3":"materials/default/stickers/sticker_default_psd_7f7731d3.vtex","g_tSticker4":"materials/default/stickers/sticker_default_psd_7f7731d3.vtex","g_tStickerScratches":"materials/default/stickers/sticker_default_scratches_psd_a9ad199b.vtex","g_tStickerWepInputs":"weapons/models/ak47/materials/stickers/weapon_rif_ak47_sticker_mask_hd_tga_8e7a83c3.vtex"}}},"name":"weapon_rif_ak47","normalTexture":{"index":7},"occlusionTexture":{"index":8},"pbrMetallicRoughness":{"baseColorTexture":{"index":6},"metallicRoughnessTexture":{"index":8}}}],"meshes":[{"extras":{},"name":"weapons/models/ak47/weapon_rif_ak47.vmdl_c.body_legacy","primitives":[{"attributes":{"POSITION":210,"TEXCOORD_0":211,"NORMAL":212,"TANGENT":213,"TEXCOORD_1":214,"JOINTS_0":215,"WEIGHTS_0":216},"indices":217,"material":0},{"attributes":{"POSITION":210,"TEXCOORD_0":211,"NORMAL":212,"TANGENT":213,"TEXCOORD_1":214,"JOINTS_0":215,"WEIGHTS_0":216},"indices":218,"material":1}]},{"extras":{},"name":"weapons/models/ak47/weapon_rif_ak47.vmdl_c.body_hd","primitives":[{"attributes":{"POSITION":220,"TEXCOORD_0":221,"NORMAL":222,"TANGENT":223,"TEXCOORD_1":224,"JOINTS_0":225,"WEIGHTS_0":226},"indices":234,"material":2},{"attributes":{"POSITION":227,"TEXCOORD_0":228,"NORMAL":229,"TANGENT":230,"TEXCOORD_1":231,"JOINTS_0":232,"WEIGHTS_0":233},"indices":235,"material":1}]}],"nodes":[{"name":"weapons/models/ak47/weapon_rif_ak47.vmdl_c","children":[1],"matrix":[3.027916E-09,0,0.025399996,0,0.025399996,3.027916E-09,0,0,0,0.025399996,3.027916E-09,0,0,0,0,1]},{"name":"weapon","children":[2],"translation":[2.9688895,-0.1930646,2.9819112]},{"name":"weapon_offset","children":[3,4,5,6,7],"rotation":[-2.1855692E-08,4.549814E-07,-9.943937E-15,1]},{"name":"bolt","translation":[5.7358813,0.1930631,-0.37656283]},{"name":"clip","translation":[3.956338,0.19305062,-4.739345]},{"name":"cliprelease","translation":[1.5860324,0.19305597,-2.8237698]},{"name":"trigger","translation":[-0.6934631,0.19305824,-2.0413356]},{"name":"ag1_hand_r","translation":[-3.4112527,0.19305936,-4.507503]},{"name":"weapons/models/ak47/weapon_rif_ak47.vmdl_c.body_legacy","mesh":0,"skin":0},{"name":"weapons/models/ak47/weapon_rif_ak47.vmdl_c.body_hd","mesh":1,"skin":1}],"samplers":[{"magFilter":9729,"minFilter":9987}],"scenes":[{"name":"weapon_rif_ak47.vmdl_c","nodes":[0,8,9]}],"skins":[{"inverseBindMatrices":219,"joints":[1,2,3,4,5,6,7]},{"inverseBindMatrices":236,"joints":[1,2,3,4,5,6,7]}],"textures":[{"name":"ak47_color_psd_1f318532.vtex","sampler":0,"source":0},{"name":"ak47_normal_psd_57f37ac9.vtex","sampler":0,"source":1},{"name":"ak47_ao_psd_286fb1af_orm_2165450181.png","sampler":0,"source":2},{"name":"sticker_gaps_vmat_g_tcolor_44181499.vtex","sampler":0,"source":3},{"name":"default_normal_tga_4fc2d3dd.vtex","sampler":0,"source":4},{"name":"default_ao_tga_559f1ac6_orm_289720758.png","sampler":0,"source":5},{"name":"ak47_default_color_psd_5b66a23b.vtex","sampler":0,"source":6},{"name":"ak47_default_normal_png_c8c5793e.vtex","sampler":0,"source":7},{"name":"ak47_default_ao_png_b00f6e2e_orm_1322888879.png","sampler":0,"source":8}]}